<svg width="38" height="38" viewBox="0 0 38 38" fill="none" xmlns="http://www.w3.org/2000/svg">
<path d="M8.2329 5.77778H36L32.2222 19H10.2671M34.1111 26.5556H11.4444L7.66667 2H2M13.3333 34.1111C13.3333 35.1543 12.4876 36 11.4444 36C10.4012 36 9.55556 35.1543 9.55556 34.1111C9.55556 33.0679 10.4012 32.2222 11.4444 32.2222C12.4876 32.2222 13.3333 33.0679 13.3333 34.1111ZM34.1111 34.1111C34.1111 35.1543 33.2655 36 32.2222 36C31.179 36 30.3333 35.1543 30.3333 34.1111C30.3333 33.0679 31.179 32.2222 32.2222 32.2222C33.2655 32.2222 34.1111 33.0679 34.1111 34.1111Z" stroke="white" stroke-width="3.77778" stroke-linecap="round" stroke-linejoin="round"/>
</svg>
