<svg width="141" height="353" viewBox="0 0 141 353" fill="none" xmlns="http://www.w3.org/2000/svg">
<path d="M95.5242 350.067L70.5 351.83L45.4758 350.067C44.1353 349.972 42.8067 349.751 41.5081 349.404L16.0289 342.608C14.6859 342.25 13.4545 341.559 12.4481 340.598C10.6051 338.839 9.62619 336.321 10.0541 333.807C10.3212 332.238 10.6553 330.855 11.0129 330.586C11.6351 330.119 35.3578 320.09 50.0872 313.893C52.5528 312.856 54.6754 311.155 56.2297 308.975C57.4573 307.253 58.2917 305.281 58.6739 303.2L62.6835 281.364C62.8751 280.32 62.9885 279.264 63.0226 278.203L64.2438 240.269L61.8236 204.094C61.7406 202.853 61.5492 201.622 61.2514 200.416L58.2306 188.17C57.4431 184.977 55.927 182.012 53.8016 179.506L40.1756 163.443C39.3978 162.526 38.5438 161.677 37.6226 160.905L18.3324 144.738C16.5748 143.265 15.0671 141.516 13.8678 139.56L8.62516 131.008C7.25969 128.78 6.31607 126.319 5.84167 123.749L1.3536 99.4302C1.00833 97.5593 0.915344 95.6505 1.07714 93.7548L3.45166 65.934C3.54397 64.8525 3.71882 63.7797 3.97468 62.7251L12.9216 25.8448L15.8988 17.6407C18.7361 9.82201 19.6574 1.56698 27.9335 0.904921H69.3244C70.4598 0.814098 71.6005 0.815071 72.7357 0.90783L113.4 0.904921C121.662 1.58003 122.26 9.81032 125.092 17.6167L128.078 25.8448L137.025 62.7251C137.281 63.7797 137.456 64.8525 137.548 65.934L139.923 93.7548C140.085 95.6505 139.992 97.5593 139.646 99.4302L135.158 123.749C134.684 126.319 133.74 128.78 132.375 131.008L127.132 139.56C125.933 141.516 124.425 143.265 122.668 144.738L103.377 160.905C102.456 161.677 101.602 162.526 100.824 163.443L87.1984 179.506C85.073 182.012 83.5569 184.977 82.7694 188.17L79.7486 200.416C79.4508 201.622 79.2594 202.853 79.1764 204.094L76.7562 240.269L77.9774 278.203C78.0115 279.264 78.1249 280.32 78.3165 281.364L82.3261 303.2C82.7083 305.281 83.5427 307.253 84.7703 308.975C86.3246 311.155 88.4472 312.856 90.9128 313.893C105.642 320.09 129.365 330.119 129.987 330.586C130.345 330.855 130.679 332.238 130.946 333.807C131.374 336.321 130.395 338.839 128.552 340.598C127.545 341.559 126.314 342.25 124.971 342.608L99.4919 349.404C98.1933 349.751 96.8647 349.972 95.5242 350.067Z" fill="black"/>
<path d="M107.886 8.8439H33.0233C21.3592 8.8439 26.4036 8.76222 21.3592 20.3886C21.3592 21.7965 18.4981 30.789 18.2015 32.1652L9.45904 72.7299C9.0818 74.4803 8.85047 76.2591 8.76744 78.0479L7.88806 96.9935C7.7106 100.817 8.21262 104.641 9.3707 108.288L14.7286 125.162C15.9175 128.906 17.7781 132.402 20.2191 135.477L20.9603 136.41C22.9422 138.907 25.2822 141.096 27.9042 142.905L40.052 151.288C44.244 154.181 49.0601 156.038 54.106 156.707L67.9752 158.547C72.7777 159.184 77.6618 158.728 82.2643 157.213L97.0253 152.355C101.825 150.775 106.187 148.086 109.76 144.507L117.783 136.466C121.481 132.761 124.223 128.211 125.774 123.207L130.429 108.191C131.54 104.607 132.019 100.857 131.845 97.1082L130.967 78.1934C130.879 76.3081 130.627 74.4341 130.213 72.593L121.671 33.9893C121.428 32.9098 120.104 28.6829 118.998 24.759C117.688 20.1143 116.926 15.1114 114.876 10.7438C113.291 7.36884 112.419 8.8439 107.886 8.8439Z" fill="white"/>
<path d="M52.1768 85.643L39.1227 88.3549L48.5066 82.0258C49.6008 81.2879 50.6328 80.4614 51.5924 79.5548L54.6319 76.6831C56.5776 74.8448 58.2012 72.6455 59.3972 70.2488C60.4279 68.183 61.1475 65.9422 61.5034 63.6603C61.8503 61.4351 61.8605 59.1702 61.5335 56.942L61.247 54.9901C61.0605 53.719 60.7394 52.4714 60.2892 51.2685L59.1218 48.1488C58.6646 46.9273 58.5686 45.5997 58.8452 44.3249C59.2507 42.4557 60.4247 40.8449 62.0782 39.889L62.1786 39.8309C63.9658 38.7977 66.1157 38.603 68.0589 39.2984L68.3023 39.3855C70.001 39.9935 71.4283 41.1876 72.3283 42.7541L73.6474 45.0499C74.5178 46.5648 75.1137 48.2222 75.4073 49.9454L75.8269 52.4084C76.2385 54.8243 76.2819 57.2888 75.9556 59.7177L75.7087 61.5556C75.2183 65.2063 73.9035 68.6969 71.8644 71.7618L71.0078 73.0494C69.1412 75.8551 66.7105 78.2395 63.8715 80.0498L60.2488 82.36C57.7787 83.9351 55.0437 85.0475 52.1768 85.643Z" fill="#A00A26"/>
<path d="M14.788 107.651L13.7626 99.2114C13.3828 96.0855 15.8928 93.365 19.0324 93.4994L37.8503 94.3053L54.269 92.8536C57.7229 92.5482 61.1079 91.7026 64.3007 90.3476L66.2779 89.5085C73.4448 86.4668 79.041 80.5955 81.7442 73.2818C83.1455 69.4905 83.7197 65.4424 83.4281 61.41L83.1586 57.684C82.927 54.4807 82.3577 51.3109 81.4602 48.2277L79.4401 41.2872C78.7199 38.8127 77.7353 36.4234 76.5036 34.1606L75.2161 31.7954C74.7663 30.969 74.4123 30.0939 74.1609 29.187L73.8381 28.0224C73.0715 25.2572 74.811 22.4219 77.6195 21.8591C79.7499 21.4321 81.961 21.7091 83.9209 22.6484L85.484 23.3974C88.8185 24.9955 91.4597 27.7535 92.9157 31.1579L97.6554 42.2399L103.594 59.6659L104.811 64.1377C106.312 69.6557 113.043 71.7185 117.368 67.9863C119.862 65.8346 123.717 67.4045 123.975 70.6919C124.509 77.4904 124.397 79.3452 124.64 80.3168C124.979 81.6769 122.892 106.277 121.832 110.881L119.476 117.457C117.121 124.03 113.247 129.951 108.17 134.735C103.89 138.768 98.849 141.904 93.3435 143.959L87.7895 146.033C82.6732 147.943 77.2573 148.921 71.7974 148.921H67.6119C61.4083 148.921 55.2693 147.658 49.5672 145.209L39.7414 140.99C32.4138 137.843 26.1406 132.656 21.666 126.044C17.9467 120.548 15.5888 114.243 14.788 107.651Z" fill="#A00A26"/>
<path d="M74.3492 135.007L64.1984 134.082L80.1261 127.521C82.2148 126.66 84.1303 125.427 85.7794 123.881L93.4647 116.677C95.4211 114.843 96.9606 112.608 97.9784 110.125L101.312 101.993L105.129 90.0924L107.126 94.9692C108.048 97.2216 108.522 99.6328 108.522 102.067V103.248C108.522 105.093 108.25 106.928 107.713 108.693L105.605 115.635C104.6 118.943 102.7 121.907 100.116 124.197L95.9235 127.914C94.0216 129.6 91.7963 130.879 89.3838 131.674L81.8644 134.149C79.444 134.946 76.8864 135.238 74.3492 135.007Z" fill="white"/>
<path d="M70.394 351.838L70.5 351.83M70.5 351.83L95.5242 350.067C96.8647 349.972 98.1933 349.751 99.4919 349.404L124.971 342.608C126.314 342.25 127.545 341.559 128.552 340.598C130.395 338.839 131.374 336.321 130.946 333.807C130.679 332.238 130.345 330.855 129.987 330.586C129.365 330.119 105.642 320.09 90.9128 313.893C88.4472 312.856 86.3246 311.155 84.7703 308.975C83.5427 307.253 82.7083 305.281 82.3261 303.2L78.3165 281.364C78.1249 280.32 78.0115 279.264 77.9774 278.203L76.7562 240.269L79.1764 204.094C79.2594 202.853 79.4508 201.622 79.7486 200.416L82.7694 188.17C83.5569 184.977 85.073 182.012 87.1984 179.506L100.824 163.443C101.602 162.526 102.456 161.677 103.377 160.905L122.668 144.738C124.425 143.265 125.933 141.516 127.132 139.56L132.375 131.008C133.74 128.78 134.684 126.319 135.158 123.749L139.646 99.4302C139.992 97.5593 140.085 95.6505 139.923 93.7548L137.548 65.934C137.456 64.8525 137.281 63.7797 137.025 62.7251L128.078 25.8448L125.092 17.6167C122.26 9.81032 121.662 1.58003 113.4 0.904921L72.7357 0.90783C71.6005 0.815071 70.4598 0.814098 69.3244 0.904921H27.9335C19.6574 1.56698 18.7361 9.82201 15.8988 17.6407L12.9216 25.8448L3.97468 62.7251C3.71882 63.7797 3.54397 64.8525 3.45166 65.934L1.07714 93.7548C0.915344 95.6505 1.00833 97.5593 1.3536 99.4302L5.84167 123.749C6.31607 126.319 7.25969 128.78 8.62516 131.008L13.8678 139.56C15.0671 141.516 16.5748 143.265 18.3324 144.738L37.6226 160.905C38.5438 161.677 39.3978 162.526 40.1756 163.443L53.8016 179.506C55.927 182.012 57.4431 184.977 58.2306 188.17L61.2514 200.416C61.5492 201.622 61.7406 202.853 61.8236 204.094L64.2438 240.269L63.0226 278.203C62.9885 279.264 62.8751 280.32 62.6835 281.364L58.6739 303.2C58.2917 305.281 57.4573 307.253 56.2297 308.975C54.6754 311.155 52.5528 312.856 50.0872 313.893C35.3578 320.09 11.6351 330.119 11.0129 330.586C10.6553 330.855 10.3212 332.238 10.0541 333.807C9.62619 336.321 10.6051 338.839 12.4481 340.598C13.4545 341.559 14.6859 342.25 16.0289 342.608L41.5081 349.404C42.8067 349.751 44.1353 349.972 45.4758 350.067L70.5 351.83ZM70.5 351.83L70.606 351.838M107.886 8.8439C112.419 8.8439 113.291 7.36884 114.876 10.7438C116.926 15.1114 117.688 20.1143 118.998 24.759C120.104 28.6829 121.428 32.9098 121.671 33.9893L130.213 72.593C130.627 74.4341 130.879 76.3081 130.967 78.1934L131.845 97.1082C132.019 100.857 131.54 104.607 130.429 108.191L125.774 123.207C124.223 128.211 121.481 132.761 117.783 136.466L109.76 144.507C106.187 148.086 101.825 150.775 97.0253 152.355L82.2643 157.213C77.6618 158.728 72.7777 159.184 67.9752 158.547L54.106 156.707C49.0601 156.038 44.244 154.181 40.052 151.288L27.9042 142.905C25.2822 141.096 22.9422 138.907 20.9603 136.41L20.2191 135.477C17.7781 132.402 15.9175 128.906 14.7286 125.162L9.3707 108.288C8.21262 104.641 7.7106 100.817 7.88806 96.9935L8.76744 78.0479C8.85047 76.2591 9.0818 74.4803 9.45904 72.7299L18.2015 32.1652C18.4981 30.789 21.3592 21.7965 21.3592 20.3886C26.4036 8.76222 21.3592 8.8439 33.0233 8.8439H107.886ZM39.1227 88.3549L52.1768 85.643C55.0437 85.0475 57.7787 83.9351 60.2488 82.36L63.8715 80.0498C66.7105 78.2395 69.1412 75.8551 71.0078 73.0494L71.8644 71.7618C73.9035 68.6969 75.2183 65.2063 75.7087 61.5556L75.9556 59.7177C76.2819 57.2888 76.2385 54.8243 75.8269 52.4084L75.4073 49.9454C75.1137 48.2222 74.5178 46.5648 73.6474 45.0499L72.3283 42.7541C71.4283 41.1876 70.001 39.9935 68.3023 39.3855L68.0589 39.2984C66.1157 38.603 63.9658 38.7977 62.1786 39.8309L62.0782 39.889C60.4247 40.8449 59.2507 42.4557 58.8452 44.3249C58.5686 45.5997 58.6646 46.9273 59.1218 48.1488L60.2892 51.2685C60.7394 52.4714 61.0605 53.719 61.247 54.9901L61.5335 56.942C61.8605 59.1702 61.8503 61.4351 61.5034 63.6603C61.1475 65.9422 60.4279 68.183 59.3972 70.2488C58.2012 72.6455 56.5776 74.8448 54.6319 76.6831L51.5924 79.5548C50.6328 80.4614 49.6008 81.2879 48.5066 82.0258L39.1227 88.3549ZM13.7626 99.2114L14.788 107.651C15.5888 114.243 17.9467 120.548 21.666 126.044C26.1406 132.656 32.4138 137.843 39.7414 140.99L49.5672 145.209C55.2693 147.658 61.4083 148.921 67.6119 148.921H71.7974C77.2573 148.921 82.6732 147.943 87.7895 146.033L93.3435 143.959C98.849 141.904 103.89 138.768 108.17 134.735C113.247 129.951 117.121 124.03 119.476 117.457L121.832 110.881C122.892 106.277 124.979 81.6769 124.64 80.3168C124.397 79.3452 124.509 77.4904 123.975 70.6919C123.717 67.4045 119.862 65.8346 117.368 67.9863C113.043 71.7185 106.312 69.6557 104.811 64.1377L103.594 59.6659L97.6554 42.2399L92.9157 31.1579C91.4597 27.7535 88.8185 24.9955 85.484 23.3974L83.9209 22.6484C81.961 21.7091 79.7499 21.4321 77.6195 21.8591C74.811 22.4219 73.0715 25.2572 73.8381 28.0224L74.1609 29.187C74.4123 30.0939 74.7663 30.969 75.2161 31.7954L76.5036 34.1606C77.7353 36.4234 78.7199 38.8127 79.4401 41.2872L81.4602 48.2277C82.3577 51.3109 82.927 54.4807 83.1586 57.684L83.4281 61.41C83.7197 65.4424 83.1455 69.4905 81.7442 73.2818C79.041 80.5955 73.4448 86.4668 66.2779 89.5085L64.3007 90.3476C61.1079 91.7026 57.7229 92.5482 54.269 92.8536L37.8503 94.3053L19.0324 93.4994C15.8928 93.365 13.3828 96.0855 13.7626 99.2114ZM64.1984 134.082L74.3492 135.007C76.8864 135.238 79.444 134.946 81.8644 134.149L89.3838 131.674C91.7963 130.879 94.0216 129.6 95.9235 127.914L100.116 124.197C102.7 121.907 104.6 118.943 105.605 115.635L107.713 108.693C108.25 106.928 108.522 105.093 108.522 103.248V102.067C108.522 99.6328 108.048 97.2216 107.126 94.9692L105.129 90.0924L101.312 101.993L97.9784 110.125C96.9606 112.608 95.4211 114.843 93.4647 116.677L85.7794 123.881C84.1303 125.427 82.2148 126.66 80.1261 127.521L64.1984 134.082Z" stroke="white"/>
</svg>
