<svg width="46" height="50" viewBox="0 0 46 50" fill="none" xmlns="http://www.w3.org/2000/svg">
<path d="M3 10H43M33 10L32.3235 7.97017C31.6677 6.00312 31.3398 5.0196 30.7318 4.29245C30.1948 3.65032 29.5052 3.1533 28.7262 2.84695C27.844 2.5 26.8075 2.5 24.734 2.5H21.266C19.1925 2.5 18.156 2.5 17.2738 2.84695C16.4948 3.1533 15.8052 3.65032 15.2682 4.29245C14.6601 5.0196 14.3323 6.00312 13.6766 7.97017L13 10M38 10V35.5C38 39.7005 38 41.8005 37.1825 43.405C36.4635 44.8162 35.3162 45.9635 33.905 46.6825C32.3005 47.5 30.2005 47.5 26 47.5H20C15.7996 47.5 13.6994 47.5 12.0951 46.6825C10.6839 45.9635 9.5365 44.8162 8.81745 43.405C8 41.8005 8 39.7005 8 35.5V10M28 20V37.5M18 20V37.5" stroke="black" stroke-width="5" stroke-linecap="round" stroke-linejoin="round"/>
</svg>
